<svg viewBox="0 0 308 49" fill="currentColor" xmlns="http://www.w3.org/2000/svg" aria-label="Akvantis"><path d="M24.0209 0.146484C10.777 0.146484 0 10.9305 0 24.1831C0 37.4356 10.777 48.2196 24.0209 48.2196C37.2649 48.2196 48.0418 37.4356 48.0418 24.1831C48.0418 10.9305 37.2694 0.146484 24.0209 0.146484ZM24.0209 45.1933C12.4445 45.1933 3.02432 35.7671 3.02432 24.1831C3.02432 12.5991 12.4445 3.17277 24.0209 3.17277C35.5974 3.17277 45.0175 12.5991 45.0175 24.1831C45.0175 35.7671 35.5974 45.1933 24.0209 45.1933Z"/><path d="M18.6985 21.7971C20.7543 21.5777 22.7324 21.8199 25.0258 22.6337C29.1968 24.1285 33.3587 23.6119 36.6891 21.6508L35.1632 15.8679C32.9658 16.8965 30.7957 17.3262 28.5572 17.2531C26.1405 17.1754 24.6375 16.3799 22.6411 15.8725C21.2385 15.5159 19.8223 15.4199 18.3102 15.5434C15.7655 15.7537 13.463 16.5811 11.3524 18.1034L12.8828 23.8817C14.7788 22.6977 16.4874 22.0302 18.7031 21.7925L18.6985 21.7971Z"/><path d="M28.5617 26.2453C26.145 26.1676 24.6419 25.3721 22.6455 24.8647C21.243 24.5081 19.8268 24.4121 18.3146 24.5356C15.77 24.7459 13.4675 25.5733 11.3569 27.0956L12.8873 32.8738C14.7832 31.6898 16.4918 31.0224 18.7075 30.7847C20.7633 30.5653 22.7415 30.8076 25.0348 31.6213C29.2058 33.1161 33.3677 32.5996 36.6981 30.6384L35.1722 24.8556C32.9748 25.8841 30.8048 26.3139 28.5662 26.2407L28.5617 26.2453Z"/><path d="M227.212 12.2246H221.894C221.542 12.2246 221.255 12.5126 221.255 12.8646V32.8509L210.752 12.572C210.642 12.3618 210.423 12.2246 210.185 12.2246H199.029C198.677 12.2246 198.39 12.5126 198.39 12.8646V35.6029C198.39 35.9549 198.677 36.2429 199.029 36.2429H204.347C204.699 36.2429 204.986 35.9549 204.986 35.6029V15.6166L215.489 35.8955C215.599 36.1057 215.818 36.2429 216.056 36.2429H227.212C227.564 36.2429 227.851 35.9549 227.851 35.6029V12.8646C227.851 12.5126 227.564 12.2246 227.212 12.2246Z"/><path d="M88.9978 12.5903C88.8927 12.3663 88.6689 12.2246 88.4176 12.2246H78.8878C78.6411 12.2246 78.4173 12.3663 78.3076 12.5903L67.5352 35.3286C67.3342 35.7537 67.6449 36.2429 68.1154 36.2429H73.296C73.5427 36.2429 73.7666 36.1012 73.8762 35.8772L75.1463 33.1938H92.1592L93.4292 35.8772C93.5343 36.1012 93.7581 36.2429 94.0094 36.2429H99.19C99.6606 36.2429 99.9712 35.7537 99.7702 35.3286L88.9978 12.5903ZM77.531 28.1652L83.6573 15.2372L89.7836 28.1652H77.5356H77.531Z"/><path d="M164.277 12.2246H159.096C158.849 12.2246 158.626 12.3663 158.516 12.5903L148.739 33.2303L138.963 12.5903C138.858 12.3663 138.634 12.2246 138.383 12.2246H133.202C132.732 12.2246 132.421 12.7138 132.622 13.1389L143.394 35.8772C143.499 36.1012 143.723 36.2429 143.975 36.2429H153.504C153.751 36.2429 153.975 36.1012 154.085 35.8772L164.857 13.1389C165.058 12.7138 164.747 12.2246 164.277 12.2246Z"/><path d="M183.396 12.5903C183.291 12.3663 183.067 12.2246 182.816 12.2246H173.286C173.039 12.2246 172.815 12.3663 172.706 12.5903L161.933 35.3286C161.732 35.7537 162.043 36.2429 162.514 36.2429H167.694C167.941 36.2429 168.165 36.1012 168.274 35.8772L169.544 33.1938H186.557L187.827 35.8772C187.932 36.1012 188.156 36.2429 188.408 36.2429H193.588C194.059 36.2429 194.369 35.7537 194.168 35.3286L183.396 12.5903ZM171.929 28.1652L178.055 15.2372L184.182 28.1652H171.934H171.929Z"/><path d="M303.67 22.9767C302.546 22.4052 301.294 22.0487 299.837 21.8887C298.37 21.7287 296.89 21.6281 295.419 21.5321L295.273 21.5229C294.3 21.4589 293.322 21.3995 292.349 21.3401L292.171 21.3309C290.618 21.2395 288.864 21.1344 287.164 21.0018C286.113 20.9195 284.738 20.7869 283.409 20.4898C283.162 20.4349 283.011 20.1469 282.975 20.0601C282.797 19.6669 282.833 19.1732 283.062 18.8578C283.194 18.6749 283.386 18.5469 284.012 18.3869C285.629 17.9801 287.329 17.9024 288.781 17.8841C290.746 17.8567 292.852 17.8475 294.958 17.9572C296.708 18.0487 298.494 18.2178 300.225 18.3778C300.851 18.4372 301.482 18.4967 302.107 18.5515C302.382 18.5744 302.674 18.6247 302.994 18.6749C303.158 18.7024 303.323 18.7298 303.487 18.7527L304.346 18.8761C304.689 18.9264 305.008 18.6932 305.068 18.3504L305.758 14.3229C305.812 13.9938 305.611 13.6784 305.287 13.5961L304.584 13.4132C304.469 13.3812 304.36 13.3538 304.255 13.3355C301.07 12.7732 297.676 12.4487 293.564 12.3161C291.043 12.2338 288.58 12.3161 286.255 12.5584C284.482 12.7412 282.586 13.0109 280.709 13.7241C279.439 14.2087 278.457 14.8761 277.712 15.7767C276.826 16.8464 276.405 18.1584 276.433 19.7858C276.474 22.3184 277.616 24.1469 279.823 25.2167C280.91 25.7424 282.148 26.0852 283.491 26.2361C284.953 26.3961 286.429 26.4967 287.863 26.5927L287.986 26.6018C289.138 26.6795 290.284 26.7481 291.436 26.8212C292.993 26.9172 294.551 27.0132 296.109 27.1229C297.713 27.2372 298.914 27.2784 299.983 27.5572C300.545 27.7035 300.705 28.1195 300.696 28.7732C300.7 29.7972 299.805 30.0304 299.609 30.0669C298.361 30.3184 297.361 30.4738 296.461 30.5561C294.003 30.7801 291.518 30.7161 289.202 30.6155C286.141 30.4829 283.345 30.1995 280.659 29.7469L278.507 29.3858C278.155 29.3264 277.822 29.5687 277.767 29.9252L277.145 34.2132C277.095 34.5469 277.314 34.8624 277.648 34.9309L278.461 35.1001C278.621 35.1367 278.754 35.1641 278.886 35.1778C279.622 35.2647 280.357 35.3561 281.088 35.4521C282.778 35.6669 284.523 35.8864 286.269 36.0372C288.037 36.1881 289.809 36.2658 291.559 36.2658C292.039 36.2658 292.514 36.2612 292.989 36.2475C294.999 36.1972 296.995 36.0464 298.928 35.7995C300.239 35.6304 301.957 35.3332 303.606 34.5469C305.187 33.7927 306.196 32.7687 306.685 31.4201C307.165 30.0989 307.233 28.6955 306.891 27.1275C306.484 25.2532 305.401 23.8544 303.679 22.9767H303.67Z"/><path d="M261.018 12.2246H232.904C232.383 12.2246 232.081 12.8143 232.383 13.2395L235.713 17.8886C235.832 18.0578 236.029 18.1538 236.234 18.1538H243.644V35.6029C243.644 35.9549 243.932 36.2429 244.284 36.2429H249.601C249.953 36.2429 250.241 35.9549 250.241 35.6029V18.1538H257.601C257.806 18.1538 257.994 18.0578 258.117 17.8932L261.534 13.244C261.845 12.8235 261.543 12.2246 261.018 12.2246Z"/><path d="M120.626 22.8303H120.608L129.164 13.2943C129.534 12.8829 129.242 12.2246 128.689 12.2246H122.444C122.261 12.2246 122.088 12.3023 121.969 12.4349L114.079 21.2303H110.589V12.8646C110.589 12.5126 110.301 12.2246 109.949 12.2246H104.632C104.28 12.2246 103.992 12.5126 103.992 12.8646V35.6029C103.992 35.9549 104.28 36.2429 104.632 36.2429H109.949C110.301 36.2429 110.589 35.9549 110.589 35.6029V26.2589H115.623L124.038 36.0189C124.162 36.1606 124.335 36.2429 124.523 36.2429H130.795C131.343 36.2429 131.636 35.5983 131.279 35.1869L120.626 22.8303Z"/><path d="M272.024 12.2246H266.707C266.355 12.2246 266.067 12.5126 266.067 12.8646V35.5526C266.067 36.0646 266.638 36.3709 267.063 36.0829L272.381 32.5355C272.559 32.4166 272.664 32.2155 272.664 32.0052V12.8646C272.664 12.5126 272.376 12.2246 272.024 12.2246Z"/></svg>