<svg width="88.3959" height="88.396" viewBox="0 0 88.3959 88.396" fill="none" xmlns="http://www.w3.org/2000/svg">
<g id="Group 313">
<g id="akvantis_de_qr 3">
<path id="Vector" d="M4.55899 1.14945L1.11499 1.14945L1.11499 4.59344L4.55899 4.59344L4.55899 1.14945Z" fill="#010006"/>
<path id="Vector_2" d="M7.99936 1.14945L4.55537 1.14945L4.55537 4.59344L7.99936 4.59344L7.99936 1.14945Z" fill="#010006"/>
<path id="Vector_3" d="M11.4455 1.14945L8.00151 1.14945L8.00151 4.59344L11.4455 4.59344L11.4455 1.14945Z" fill="#010006"/>
<path id="Vector_4" d="M14.8859 1.14945L11.4419 1.14945L11.4419 4.59344L14.8859 4.59344L14.8859 1.14945Z" fill="#010006"/>
<path id="Vector_5" d="M18.332 1.14945L14.888 1.14945L14.888 4.59344L18.332 4.59344L18.332 1.14945Z" fill="#010006"/>
<path id="Vector_6" d="M21.7782 1.14945L18.3342 1.14945L18.3342 4.59344L21.7782 4.59344L21.7782 1.14945Z" fill="#010006"/>
<path id="Vector_7" d="M25.2185 1.14945L21.7745 1.14945L21.7745 4.59344L25.2185 4.59344L25.2185 1.14945Z" fill="#010006"/>
<path id="Vector_8" d="M32.1108 1.14945L28.6668 1.14945L28.6668 4.59344L32.1108 4.59344L32.1108 1.14945Z" fill="#010006"/>
<path id="Vector_9" d="M42.4435 1.14945L38.9995 1.14945L38.9995 4.59344L42.4435 4.59344L42.4435 1.14945Z" fill="#010006"/>
<path id="Vector_10" d="M49.33 1.14945L45.886 1.14945L45.886 4.59344L49.33 4.59344L49.33 1.14945Z" fill="#010006"/>
<path id="Vector_11" d="M52.7704 1.14945L49.3264 1.14945L49.3264 4.59344L52.7704 4.59344L52.7704 1.14945Z" fill="#010006"/>
<path id="Vector_12" d="M66.5492 1.14945L63.1052 1.14945L63.1052 4.59344L66.5492 4.59344V1.14945Z" fill="#010006"/>
<path id="Vector_13" d="M69.9953 1.14945L66.5513 1.14945V4.59344L69.9953 4.59344V1.14945Z" fill="#010006"/>
<path id="Vector_14" d="M73.4357 1.14945L69.9917 1.14945V4.59344L73.4357 4.59344V1.14945Z" fill="#010006"/>
<path id="Vector_15" d="M76.8819 1.14945L73.4379 1.14945V4.59344L76.8819 4.59344V1.14945Z" fill="#010006"/>
<path id="Vector_16" d="M80.3222 1.14945L76.8782 1.14945V4.59344L80.3222 4.59344V1.14945Z" fill="#010006"/>
<path id="Vector_17" d="M83.7684 1.14945L80.3244 1.14945V4.59344L83.7684 4.59344V1.14945Z" fill="#010006"/>
<path id="Vector_18" d="M87.2145 1.14945L83.7705 1.14945V4.59344L87.2145 4.59344V1.14945Z" fill="#010006"/>
<path id="Vector_19" d="M4.55899 4.59343L1.11499 4.59343L1.11499 8.03742L4.55899 8.03742L4.55899 4.59343Z" fill="#010006"/>
<path id="Vector_20" d="M25.2185 4.59343L21.7745 4.59343L21.7745 8.03742L25.2185 8.03742L25.2185 4.59343Z" fill="#010006"/>
<path id="Vector_21" d="M35.5512 4.59343L32.1072 4.59343L32.1072 8.03742L35.5512 8.03742L35.5512 4.59343Z" fill="#010006"/>
<path id="Vector_22" d="M42.4435 4.59343L38.9995 4.59343L38.9995 8.03742L42.4435 8.03742L42.4435 4.59343Z" fill="#010006"/>
<path id="Vector_23" d="M52.7704 4.59343L49.3264 4.59343L49.3264 8.03742L52.7704 8.03742L52.7704 4.59343Z" fill="#010006"/>
<path id="Vector_24" d="M66.5492 4.59343L63.1052 4.59343L63.1052 8.03742L66.5492 8.03742V4.59343Z" fill="#010006"/>
<path id="Vector_25" d="M87.2145 4.59343L83.7705 4.59343V8.03742L87.2145 8.03742V4.59343Z" fill="#010006"/>
<path id="Vector_26" d="M4.55899 8.03705L1.11499 8.03705L1.11499 11.481L4.55899 11.481L4.55899 8.03705Z" fill="#010006"/>
<path id="Vector_27" d="M11.4455 8.03705L8.00151 8.03705L8.00151 11.481L11.4455 11.481L11.4455 8.03705Z" fill="#010006"/>
<path id="Vector_28" d="M14.8859 8.03705L11.4419 8.03705L11.4419 11.481L14.8859 11.481L14.8859 8.03705Z" fill="#010006"/>
<path id="Vector_29" d="M18.332 8.03705L14.888 8.03705L14.888 11.481L18.332 11.481L18.332 8.03705Z" fill="#010006"/>
<path id="Vector_30" d="M25.2185 8.03705L21.7745 8.03705L21.7745 11.481L25.2185 11.481L25.2185 8.03705Z" fill="#010006"/>
<path id="Vector_31" d="M32.1108 8.03705L28.6668 8.03705L28.6668 11.481L32.1108 11.481L32.1108 8.03705Z" fill="#010006"/>
<path id="Vector_32" d="M38.9973 8.03705L35.5534 8.03705L35.5534 11.481L38.9973 11.481L38.9973 8.03705Z" fill="#010006"/>
<path id="Vector_33" d="M42.4435 8.03705L38.9995 8.03705L38.9995 11.481L42.4435 11.481L42.4435 8.03705Z" fill="#010006"/>
<path id="Vector_34" d="M49.33 8.03705L45.886 8.03705L45.886 11.481L49.33 11.481L49.33 8.03705Z" fill="#010006"/>
<path id="Vector_35" d="M52.7704 8.03705L49.3264 8.03705L49.3264 11.481L52.7704 11.481L52.7704 8.03705Z" fill="#010006"/>
<path id="Vector_36" d="M66.5492 8.03705L63.1052 8.03705L63.1052 11.481L66.5492 11.481V8.03705Z" fill="#010006"/>
<path id="Vector_37" d="M73.4357 8.03705L69.9917 8.03705V11.481L73.4357 11.481V8.03705Z" fill="#010006"/>
<path id="Vector_38" d="M76.8819 8.03705L73.4379 8.03705V11.481L76.8819 11.481V8.03705Z" fill="#010006"/>
<path id="Vector_39" d="M80.3222 8.03705L76.8782 8.03705V11.481L80.3222 11.481V8.03705Z" fill="#010006"/>
<path id="Vector_40" d="M87.2145 8.03705L83.7705 8.03705V11.481L87.2145 11.481V8.03705Z" fill="#010006"/>
<path id="Vector_41" d="M4.55899 11.4799L1.11499 11.4799L1.11499 14.9239L4.55899 14.9239L4.55899 11.4799Z" fill="#010006"/>
<path id="Vector_42" d="M11.4455 11.4799L8.00151 11.4799L8.00151 14.9239L11.4455 14.9239L11.4455 11.4799Z" fill="#010006"/>
<path id="Vector_43" d="M14.8859 11.4799L11.4419 11.4799L11.4419 14.9239L14.8859 14.9239L14.8859 11.4799Z" fill="#010006"/>
<path id="Vector_44" d="M18.332 11.4799L14.888 11.4799L14.888 14.9239L18.332 14.9239L18.332 11.4799Z" fill="#010006"/>
<path id="Vector_45" d="M25.2185 11.4799L21.7745 11.4799L21.7745 14.9239L25.2185 14.9239L25.2185 11.4799Z" fill="#010006"/>
<path id="Vector_46" d="M49.33 11.4799L45.886 11.4799L45.886 14.9239L49.33 14.9239L49.33 11.4799Z" fill="#010006"/>
<path id="Vector_47" d="M52.7704 11.4799L49.3264 11.4799L49.3264 14.9239L52.7704 14.9239L52.7704 11.4799Z" fill="#010006"/>
<path id="Vector_48" d="M56.2165 11.4799L52.7725 11.4799L52.7725 14.9239L56.2165 14.9239L56.2165 11.4799Z" fill="#010006"/>
<path id="Vector_49" d="M66.5492 11.4799L63.1052 11.4799L63.1052 14.9239L66.5492 14.9239V11.4799Z" fill="#010006"/>
<path id="Vector_50" d="M73.4357 11.4799L69.9917 11.4799V14.9239L73.4357 14.9239V11.4799Z" fill="#010006"/>
<path id="Vector_51" d="M76.8819 11.4799L73.4379 11.4799V14.9239L76.8819 14.9239V11.4799Z" fill="#010006"/>
<path id="Vector_52" d="M80.3222 11.4799L76.8782 11.4799V14.9239L80.3222 14.9239V11.4799Z" fill="#010006"/>
<path id="Vector_53" d="M87.2145 11.4799L83.7705 11.4799V14.9239L87.2145 14.9239V11.4799Z" fill="#010006"/>
<path id="Vector_54" d="M4.55899 14.9264L1.11499 14.9264L1.11499 18.3704L4.55899 18.3704L4.55899 14.9264Z" fill="#010006"/>
<path id="Vector_55" d="M11.4455 14.9264L8.00151 14.9264L8.00151 18.3704L11.4455 18.3704L11.4455 14.9264Z" fill="#010006"/>
<path id="Vector_56" d="M14.8859 14.9264L11.4419 14.9264L11.4419 18.3704L14.8859 18.3704L14.8859 14.9264Z" fill="#010006"/>
<path id="Vector_57" d="M18.332 14.9264L14.888 14.9264L14.888 18.3704L18.332 18.3704L18.332 14.9264Z" fill="#010006"/>
<path id="Vector_58" d="M25.2185 14.9264L21.7745 14.9264L21.7745 18.3704L25.2185 18.3704L25.2185 14.9264Z" fill="#010006"/>
<path id="Vector_59" d="M38.9973 14.9264L35.5534 14.9264L35.5534 18.3704L38.9973 18.3704L38.9973 14.9264Z" fill="#010006"/>
<path id="Vector_60" d="M45.8839 14.9264L42.4399 14.9264L42.4399 18.3704L45.8839 18.3704L45.8839 14.9264Z" fill="#010006"/>
<path id="Vector_61" d="M49.33 14.9264L45.886 14.9264L45.886 18.3704L49.33 18.3704L49.33 14.9264Z" fill="#010006"/>
<path id="Vector_62" d="M52.7704 14.9264L49.3264 14.9264L49.3264 18.3704L52.7704 18.3704L52.7704 14.9264Z" fill="#010006"/>
<path id="Vector_63" d="M59.6627 14.9264L56.2187 14.9264L56.2187 18.3704L59.6627 18.3704L59.6627 14.9264Z" fill="#010006"/>
<path id="Vector_64" d="M66.5492 14.9264L63.1052 14.9264L63.1052 18.3704L66.5492 18.3704V14.9264Z" fill="#010006"/>
<path id="Vector_65" d="M73.4357 14.9264L69.9917 14.9264V18.3704L73.4357 18.3704V14.9264Z" fill="#010006"/>
<path id="Vector_66" d="M76.8819 14.9264L73.4379 14.9264V18.3704L76.8819 18.3704V14.9264Z" fill="#010006"/>
<path id="Vector_67" d="M80.3222 14.9264L76.8782 14.9264V18.3704L80.3222 18.3704V14.9264Z" fill="#010006"/>
<path id="Vector_68" d="M87.2145 14.9264L83.7705 14.9264V18.3704L87.2145 18.3704V14.9264Z" fill="#010006"/>
<path id="Vector_69" d="M4.55899 18.3693L1.11499 18.3693L1.11499 21.8133L4.55899 21.8133L4.55899 18.3693Z" fill="#010006"/>
<path id="Vector_70" d="M25.2185 18.3693L21.7745 18.3693L21.7745 21.8133L25.2185 21.8133L25.2185 18.3693Z" fill="#010006"/>
<path id="Vector_71" d="M32.1108 18.3693L28.6668 18.3693L28.6668 21.8133L32.1108 21.8133L32.1108 18.3693Z" fill="#010006"/>
<path id="Vector_72" d="M35.5512 18.3693L32.1072 18.3693L32.1072 21.8133L35.5512 21.8133L35.5512 18.3693Z" fill="#010006"/>
<path id="Vector_73" d="M38.9973 18.3693L35.5534 18.3693L35.5534 21.8133L38.9973 21.8133L38.9973 18.3693Z" fill="#010006"/>
<path id="Vector_74" d="M52.7704 18.3693L49.3264 18.3693L49.3264 21.8133L52.7704 21.8133L52.7704 18.3693Z" fill="#010006"/>
<path id="Vector_75" d="M59.6627 18.3693L56.2187 18.3693L56.2187 21.8133L59.6627 21.8133L59.6627 18.3693Z" fill="#010006"/>
<path id="Vector_76" d="M66.5492 18.3693L63.1052 18.3693L63.1052 21.8133L66.5492 21.8133V18.3693Z" fill="#010006"/>
<path id="Vector_77" d="M87.2145 18.3693L83.7705 18.3693V21.8133L87.2145 21.8133V18.3693Z" fill="#010006"/>
<path id="Vector_78" d="M4.55899 21.813L1.11499 21.813L1.11499 25.257L4.55899 25.257L4.55899 21.813Z" fill="#010006"/>
<path id="Vector_79" d="M7.99936 21.813L4.55537 21.813L4.55537 25.257L7.99936 25.257L7.99936 21.813Z" fill="#010006"/>
<path id="Vector_80" d="M11.4455 21.813L8.00151 21.813L8.00151 25.257L11.4455 25.257L11.4455 21.813Z" fill="#010006"/>
<path id="Vector_81" d="M14.8859 21.813L11.4419 21.813L11.4419 25.257L14.8859 25.257L14.8859 21.813Z" fill="#010006"/>
<path id="Vector_82" d="M18.332 21.813L14.888 21.813L14.888 25.257L18.332 25.257L18.332 21.813Z" fill="#010006"/>
<path id="Vector_83" d="M21.7782 21.813L18.3342 21.813L18.3342 25.257L21.7782 25.257L21.7782 21.813Z" fill="#010006"/>
<path id="Vector_84" d="M25.2185 21.813L21.7745 21.813L21.7745 25.257L25.2185 25.257L25.2185 21.813Z" fill="#010006"/>
<path id="Vector_85" d="M32.1108 21.813L28.6668 21.813L28.6668 25.257L32.1108 25.257L32.1108 21.813Z" fill="#010006"/>
<path id="Vector_86" d="M38.9973 21.813L35.5534 21.813L35.5534 25.257L38.9973 25.257L38.9973 21.813Z" fill="#010006"/>
<path id="Vector_87" d="M45.8839 21.813L42.4399 21.813L42.4399 25.257L45.8839 25.257L45.8839 21.813Z" fill="#010006"/>
<path id="Vector_88" d="M52.7704 21.813L49.3264 21.813L49.3264 25.257L52.7704 25.257L52.7704 21.813Z" fill="#010006"/>
<path id="Vector_89" d="M59.6627 21.813L56.2187 21.813L56.2187 25.257L59.6627 25.257L59.6627 21.813Z" fill="#010006"/>
<path id="Vector_90" d="M66.5492 21.813L63.1052 21.813L63.1052 25.257L66.5492 25.257V21.813Z" fill="#010006"/>
<path id="Vector_91" d="M69.9953 21.813L66.5513 21.813V25.257L69.9953 25.257V21.813Z" fill="#010006"/>
<path id="Vector_92" d="M73.4357 21.813L69.9917 21.813V25.257L73.4357 25.257V21.813Z" fill="#010006"/>
<path id="Vector_93" d="M76.8819 21.813L73.4379 21.813V25.257L76.8819 25.257V21.813Z" fill="#010006"/>
<path id="Vector_94" d="M80.3222 21.813L76.8782 21.813V25.257L80.3222 25.257V21.813Z" fill="#010006"/>
<path id="Vector_95" d="M83.7684 21.813L80.3244 21.813V25.257L83.7684 25.257V21.813Z" fill="#010006"/>
<path id="Vector_96" d="M87.2145 21.813L83.7705 21.813V25.257L87.2145 25.257V21.813Z" fill="#010006"/>
<path id="Vector_97" d="M35.5512 25.2559L32.1072 25.2559L32.1072 28.6999L35.5512 28.6999L35.5512 25.2559Z" fill="#010006"/>
<path id="Vector_98" d="M42.4435 25.2559L38.9995 25.2559L38.9995 28.6999L42.4435 28.6999L42.4435 25.2559Z" fill="#010006"/>
<path id="Vector_99" d="M52.7704 25.2559L49.3264 25.2559L49.3264 28.6999L52.7704 28.6999L52.7704 25.2559Z" fill="#010006"/>
<path id="Vector_100" d="M56.2165 25.2559L52.7725 25.2559L52.7725 28.6999L56.2165 28.6999L56.2165 25.2559Z" fill="#010006"/>
<path id="Vector_101" d="M4.55899 28.7006L1.11499 28.7006L1.11499 32.1446L4.55899 32.1446L4.55899 28.7006Z" fill="#010006"/>
<path id="Vector_102" d="M11.4455 28.7006L8.00151 28.7006L8.00151 32.1446L11.4455 32.1446L11.4455 28.7006Z" fill="#010006"/>
<path id="Vector_103" d="M25.2185 28.7006L21.7745 28.7006L21.7745 32.1446L25.2185 32.1446L25.2185 28.7006Z" fill="#010006"/>
<path id="Vector_104" d="M28.6647 28.7006L25.2207 28.7006L25.2207 32.1446L28.6647 32.1446L28.6647 28.7006Z" fill="#010006"/>
<path id="Vector_105" d="M38.9973 28.7006L35.5534 28.7006L35.5534 32.1446L38.9973 32.1446L38.9973 28.7006Z" fill="#010006"/>
<path id="Vector_106" d="M42.4435 28.7006L38.9995 28.7006L38.9995 32.1446L42.4435 32.1446L42.4435 28.7006Z" fill="#010006"/>
<path id="Vector_107" d="M49.33 28.7006L45.886 28.7006L45.886 32.1446L49.33 32.1446L49.33 28.7006Z" fill="#010006"/>
<path id="Vector_108" d="M52.7704 28.7006L49.3264 28.7006L49.3264 32.1446L52.7704 32.1446L52.7704 28.7006Z" fill="#010006"/>
<path id="Vector_109" d="M56.2165 28.7006L52.7725 28.7006L52.7725 32.1446L56.2165 32.1446L56.2165 28.7006Z" fill="#010006"/>
<path id="Vector_110" d="M69.9953 28.7006L66.5513 28.7006V32.1446L69.9953 32.1446V28.7006Z" fill="#010006"/>
<path id="Vector_111" d="M80.3222 28.7006L76.8782 28.7006V32.1446L80.3222 32.1446V28.7006Z" fill="#010006"/>
<path id="Vector_112" d="M87.2145 28.7006L83.7705 28.7006V32.1446L87.2145 32.1446V28.7006Z" fill="#010006"/>
<path id="Vector_113" d="M7.99936 32.1445L4.55537 32.1445L4.55537 35.5885L7.99936 35.5885L7.99936 32.1445Z" fill="#010006"/>
<path id="Vector_114" d="M38.9973 32.1445L35.5534 32.1445L35.5534 35.5885L38.9973 35.5885L38.9973 32.1445Z" fill="#010006"/>
<path id="Vector_115" d="M42.4435 32.1445L38.9995 32.1445L38.9995 35.5885L42.4435 35.5885L42.4435 32.1445Z" fill="#010006"/>
<path id="Vector_116" d="M49.33 32.1445L45.886 32.1445L45.886 35.5885L49.33 35.5885L49.33 32.1445Z" fill="#010006"/>
<path id="Vector_117" d="M56.2165 32.1445L52.7725 32.1445L52.7725 35.5885L56.2165 35.5885L56.2165 32.1445Z" fill="#010006"/>
<path id="Vector_118" d="M59.6627 32.1445L56.2187 32.1445L56.2187 35.5885L59.6627 35.5885L59.6627 32.1445Z" fill="#010006"/>
<path id="Vector_119" d="M66.5492 32.1445L63.1052 32.1445L63.1052 35.5885L66.5492 35.5885V32.1445Z" fill="#010006"/>
<path id="Vector_120" d="M69.9953 32.1445L66.5513 32.1445V35.5885L69.9953 35.5885V32.1445Z" fill="#010006"/>
<path id="Vector_121" d="M76.8819 32.1445L73.4379 32.1445V35.5885L76.8819 35.5885V32.1445Z" fill="#010006"/>
<path id="Vector_122" d="M83.7684 32.1445L80.3244 32.1445V35.5885L83.7684 35.5885V32.1445Z" fill="#010006"/>
<path id="Vector_123" d="M87.2145 32.1445L83.7705 32.1445V35.5885L87.2145 35.5885V32.1445Z" fill="#010006"/>
<path id="Vector_124" d="M4.55899 35.5892L1.11499 35.5892L1.11499 39.0332L4.55899 39.0332L4.55899 35.5892Z" fill="#010006"/>
<path id="Vector_125" d="M25.2185 35.5892L21.7745 35.5892L21.7745 39.0332L25.2185 39.0332L25.2185 35.5892Z" fill="#010006"/>
<path id="Vector_126" d="M28.6647 35.5892L25.2207 35.5892L25.2207 39.0332L28.6647 39.0332L28.6647 35.5892Z" fill="#010006"/>
<path id="Vector_127" d="M35.5512 35.5892L32.1072 35.5892L32.1072 39.0332L35.5512 39.0332L35.5512 35.5892Z" fill="#010006"/>
<path id="Vector_128" d="M38.9973 35.5892L35.5534 35.5892L35.5534 39.0332L38.9973 39.0332L38.9973 35.5892Z" fill="#010006"/>
<path id="Vector_129" d="M42.4435 35.5892L38.9995 35.5892L38.9995 39.0332L42.4435 39.0332L42.4435 35.5892Z" fill="#010006"/>
<path id="Vector_130" d="M45.8839 35.5892L42.4399 35.5892L42.4399 39.0332L45.8839 39.0332L45.8839 35.5892Z" fill="#010006"/>
<path id="Vector_131" d="M56.2165 35.5892L52.7725 35.5892L52.7725 39.0332L56.2165 39.0332L56.2165 35.5892Z" fill="#010006"/>
<path id="Vector_132" d="M63.103 35.5892L59.659 35.5892L59.659 39.0332L63.103 39.0332L63.103 35.5892Z" fill="#010006"/>
<path id="Vector_133" d="M73.4357 35.5892L69.9917 35.5892V39.0332L73.4357 39.0332V35.5892Z" fill="#010006"/>
<path id="Vector_134" d="M76.8819 35.5892L73.4379 35.5892V39.0332L76.8819 39.0332V35.5892Z" fill="#010006"/>
<path id="Vector_135" d="M80.3222 35.5892L76.8782 35.5892V39.0332L80.3222 39.0332V35.5892Z" fill="#010006"/>
<path id="Vector_136" d="M87.2145 35.5892L83.7705 35.5892V39.0332L87.2145 39.0332V35.5892Z" fill="#010006"/>
<path id="Vector_137" d="M7.99936 39.0329L4.55537 39.0329L4.55537 42.4769L7.99936 42.4769L7.99936 39.0329Z" fill="#010006"/>
<path id="Vector_138" d="M14.8859 39.0329L11.4419 39.0329L11.4419 42.4769L14.8859 42.4769L14.8859 39.0329Z" fill="#010006"/>
<path id="Vector_139" d="M28.6647 39.0329L25.2207 39.0329L25.2207 42.4769L28.6647 42.4769L28.6647 39.0329Z" fill="#010006"/>
<path id="Vector_140" d="M32.1108 39.0329L28.6668 39.0329L28.6668 42.4769L32.1108 42.4769L32.1108 39.0329Z" fill="#010006"/>
<path id="Vector_141" d="M45.8839 39.0329L42.4399 39.0329L42.4399 42.4769L45.8839 42.4769L45.8839 39.0329Z" fill="#010006"/>
<path id="Vector_142" d="M49.33 39.0329L45.886 39.0329L45.886 42.4769L49.33 42.4769L49.33 39.0329Z" fill="#010006"/>
<path id="Vector_143" d="M63.103 39.0329L59.659 39.0329L59.659 42.4769L63.103 42.4769L63.103 39.0329Z" fill="#010006"/>
<path id="Vector_144" d="M66.5492 39.0329L63.1052 39.0329L63.1052 42.4769L66.5492 42.4769V39.0329Z" fill="#010006"/>
<path id="Vector_145" d="M76.8819 39.0329L73.4379 39.0329V42.4769L76.8819 42.4769V39.0329Z" fill="#010006"/>
<path id="Vector_146" d="M4.55899 42.4776L1.11499 42.4776L1.11499 45.9216L4.55899 45.9216L4.55899 42.4776Z" fill="#010006"/>
<path id="Vector_147" d="M7.99936 42.4776L4.55537 42.4776L4.55537 45.9216L7.99936 45.9216L7.99936 42.4776Z" fill="#010006"/>
<path id="Vector_148" d="M14.8859 42.4776L11.4419 42.4776L11.4419 45.9216L14.8859 45.9216L14.8859 42.4776Z" fill="#010006"/>
<path id="Vector_149" d="M21.7782 42.4776L18.3342 42.4776L18.3342 45.9216L21.7782 45.9216L21.7782 42.4776Z" fill="#010006"/>
<path id="Vector_150" d="M25.2185 42.4776L21.7745 42.4776L21.7745 45.9216L25.2185 45.9216L25.2185 42.4776Z" fill="#010006"/>
<path id="Vector_151" d="M28.6647 42.4776L25.2207 42.4776L25.2207 45.9216L28.6647 45.9216L28.6647 42.4776Z" fill="#010006"/>
<path id="Vector_152" d="M32.1108 42.4776L28.6668 42.4776L28.6668 45.9216L32.1108 45.9216L32.1108 42.4776Z" fill="#010006"/>
<path id="Vector_153" d="M38.9973 42.4776L35.5534 42.4776L35.5534 45.9216L38.9973 45.9216L38.9973 42.4776Z" fill="#010006"/>
<path id="Vector_154" d="M42.4435 42.4776L38.9995 42.4776L38.9995 45.9216L42.4435 45.9216L42.4435 42.4776Z" fill="#010006"/>
<path id="Vector_155" d="M45.8839 42.4776L42.4399 42.4776L42.4399 45.9216L45.8839 45.9216L45.8839 42.4776Z" fill="#010006"/>
<path id="Vector_156" d="M49.33 42.4776L45.886 42.4776L45.886 45.9216L49.33 45.9216L49.33 42.4776Z" fill="#010006"/>
<path id="Vector_157" d="M59.6627 42.4776L56.2187 42.4776L56.2187 45.9216L59.6627 45.9216L59.6627 42.4776Z" fill="#010006"/>
<path id="Vector_158" d="M66.5492 42.4776L63.1052 42.4776L63.1052 45.9216L66.5492 45.9216V42.4776Z" fill="#010006"/>
<path id="Vector_159" d="M69.9953 42.4776L66.5513 42.4776V45.9216L69.9953 45.9216V42.4776Z" fill="#010006"/>
<path id="Vector_160" d="M87.2145 42.4776L83.7705 42.4776V45.9216L87.2145 45.9216V42.4776Z" fill="#010006"/>
<path id="Vector_161" d="M7.99936 45.9205L4.55537 45.9205L4.55537 49.3645L7.99936 49.3645L7.99936 45.9205Z" fill="#010006"/>
<path id="Vector_162" d="M21.7782 45.9205L18.3342 45.9205L18.3342 49.3645L21.7782 49.3645L21.7782 45.9205Z" fill="#010006"/>
<path id="Vector_163" d="M28.6647 45.9205L25.2207 45.9205L25.2207 49.3645L28.6647 49.3645L28.6647 45.9205Z" fill="#010006"/>
<path id="Vector_164" d="M32.1108 45.9205L28.6668 45.9205L28.6668 49.3645L32.1108 49.3645L32.1108 45.9205Z" fill="#010006"/>
<path id="Vector_165" d="M45.8839 45.9205L42.4399 45.9205L42.4399 49.3645L45.8839 49.3645L45.8839 45.9205Z" fill="#010006"/>
<path id="Vector_166" d="M56.2165 45.9205L52.7725 45.9205L52.7725 49.3645L56.2165 49.3645L56.2165 45.9205Z" fill="#010006"/>
<path id="Vector_167" d="M59.6627 45.9205L56.2187 45.9205L56.2187 49.3645L59.6627 49.3645L59.6627 45.9205Z" fill="#010006"/>
<path id="Vector_168" d="M63.103 45.9205L59.659 45.9205L59.659 49.3645L63.103 49.3645L63.103 45.9205Z" fill="#010006"/>
<path id="Vector_169" d="M66.5492 45.9205L63.1052 45.9205L63.1052 49.3645L66.5492 49.3645V45.9205Z" fill="#010006"/>
<path id="Vector_170" d="M69.9953 45.9205L66.5513 45.9205V49.3645L69.9953 49.3645V45.9205Z" fill="#010006"/>
<path id="Vector_171" d="M83.7684 45.9205L80.3244 45.9205V49.3645L83.7684 49.3645V45.9205Z" fill="#010006"/>
<path id="Vector_172" d="M87.2145 45.9205L83.7705 45.9205V49.3645L87.2145 49.3645V45.9205Z" fill="#010006"/>
<path id="Vector_173" d="M4.55899 49.3652L1.11499 49.3652L1.11499 52.8092L4.55899 52.8092L4.55899 49.3652Z" fill="#010006"/>
<path id="Vector_174" d="M7.99936 49.3652L4.55537 49.3652L4.55537 52.8092L7.99936 52.8092L7.99936 49.3652Z" fill="#010006"/>
<path id="Vector_175" d="M11.4455 49.3652L8.00151 49.3652L8.00151 52.8092L11.4455 52.8092L11.4455 49.3652Z" fill="#010006"/>
<path id="Vector_176" d="M14.8859 49.3652L11.4419 49.3652L11.4419 52.8092L14.8859 52.8092L14.8859 49.3652Z" fill="#010006"/>
<path id="Vector_177" d="M21.7782 49.3652L18.3342 49.3652L18.3342 52.8092L21.7782 52.8092L21.7782 49.3652Z" fill="#010006"/>
<path id="Vector_178" d="M25.2185 49.3652L21.7745 49.3652L21.7745 52.8092L25.2185 52.8092L25.2185 49.3652Z" fill="#010006"/>
<path id="Vector_179" d="M32.1108 49.3652L28.6668 49.3652L28.6668 52.8092L32.1108 52.8092L32.1108 49.3652Z" fill="#010006"/>
<path id="Vector_180" d="M38.9973 49.3652L35.5534 49.3652L35.5534 52.8092L38.9973 52.8092L38.9973 49.3652Z" fill="#010006"/>
<path id="Vector_181" d="M45.8839 49.3652L42.4399 49.3652L42.4399 52.8092L45.8839 52.8092L45.8839 49.3652Z" fill="#010006"/>
<path id="Vector_182" d="M49.33 49.3652L45.886 49.3652L45.886 52.8092L49.33 52.8092L49.33 49.3652Z" fill="#010006"/>
<path id="Vector_183" d="M52.7704 49.3652L49.3264 49.3652L49.3264 52.8092L52.7704 52.8092L52.7704 49.3652Z" fill="#010006"/>
<path id="Vector_184" d="M56.2165 49.3652L52.7725 49.3652L52.7725 52.8092L56.2165 52.8092L56.2165 49.3652Z" fill="#010006"/>
<path id="Vector_185" d="M59.6627 49.3652L56.2187 49.3652L56.2187 52.8092L59.6627 52.8092L59.6627 49.3652Z" fill="#010006"/>
<path id="Vector_186" d="M66.5492 49.3652L63.1052 49.3652L63.1052 52.8092L66.5492 52.8092V49.3652Z" fill="#010006"/>
<path id="Vector_187" d="M76.8819 49.3652L73.4379 49.3652V52.8092L76.8819 52.8092V49.3652Z" fill="#010006"/>
<path id="Vector_188" d="M80.3222 49.3652L76.8782 49.3652V52.8092L80.3222 52.8092V49.3652Z" fill="#010006"/>
<path id="Vector_189" d="M87.2145 49.3652L83.7705 49.3652V52.8092L87.2145 52.8092V49.3652Z" fill="#010006"/>
<path id="Vector_190" d="M14.8859 52.8092L11.4419 52.8092L11.4419 56.2532L14.8859 56.2532L14.8859 52.8092Z" fill="#010006"/>
<path id="Vector_191" d="M18.332 52.8092L14.888 52.8092L14.888 56.2532L18.332 56.2532L18.332 52.8092Z" fill="#010006"/>
<path id="Vector_192" d="M42.4435 52.8092L38.9995 52.8092L38.9995 56.2532L42.4435 56.2532L42.4435 52.8092Z" fill="#010006"/>
<path id="Vector_193" d="M45.8839 52.8092L42.4399 52.8092L42.4399 56.2532L45.8839 56.2532L45.8839 52.8092Z" fill="#010006"/>
<path id="Vector_194" d="M52.7704 52.8092L49.3264 52.8092L49.3264 56.2532L52.7704 56.2532L52.7704 52.8092Z" fill="#010006"/>
<path id="Vector_195" d="M59.6627 52.8092L56.2187 52.8092L56.2187 56.2532L59.6627 56.2532L59.6627 52.8092Z" fill="#010006"/>
<path id="Vector_196" d="M66.5492 52.8092L63.1052 52.8092L63.1052 56.2532L66.5492 56.2532V52.8092Z" fill="#010006"/>
<path id="Vector_197" d="M69.9953 52.8092L66.5513 52.8092V56.2532L69.9953 56.2532V52.8092Z" fill="#010006"/>
<path id="Vector_198" d="M73.4357 52.8092L69.9917 52.8092V56.2532L73.4357 56.2532V52.8092Z" fill="#010006"/>
<path id="Vector_199" d="M76.8819 52.8092L73.4379 52.8092V56.2532L76.8819 56.2532V52.8092Z" fill="#010006"/>
<path id="Vector_200" d="M4.55899 56.2546L1.11499 56.2546L1.11499 59.6986L4.55899 59.6986L4.55899 56.2546Z" fill="#010006"/>
<path id="Vector_201" d="M7.99936 56.2546L4.55537 56.2546L4.55537 59.6986L7.99936 59.6986L7.99936 56.2546Z" fill="#010006"/>
<path id="Vector_202" d="M14.8859 56.2546L11.4419 56.2546L11.4419 59.6986L14.8859 59.6986L14.8859 56.2546Z" fill="#010006"/>
<path id="Vector_203" d="M18.332 56.2546L14.888 56.2546L14.888 59.6986L18.332 59.6986L18.332 56.2546Z" fill="#010006"/>
<path id="Vector_204" d="M21.7782 56.2546L18.3342 56.2546L18.3342 59.6986L21.7782 59.6986L21.7782 56.2546Z" fill="#010006"/>
<path id="Vector_205" d="M25.2185 56.2546L21.7745 56.2546L21.7745 59.6986L25.2185 59.6986L25.2185 56.2546Z" fill="#010006"/>
<path id="Vector_206" d="M28.6647 56.2546L25.2207 56.2546L25.2207 59.6986L28.6647 59.6986L28.6647 56.2546Z" fill="#010006"/>
<path id="Vector_207" d="M49.33 56.2546L45.886 56.2546L45.886 59.6986L49.33 59.6986L49.33 56.2546Z" fill="#010006"/>
<path id="Vector_208" d="M52.7704 56.2546L49.3264 56.2546L49.3264 59.6986L52.7704 59.6986L52.7704 56.2546Z" fill="#010006"/>
<path id="Vector_209" d="M56.2165 56.2546L52.7725 56.2546L52.7725 59.6986L56.2165 59.6986L56.2165 56.2546Z" fill="#010006"/>
<path id="Vector_210" d="M59.6627 56.2546L56.2187 56.2546L56.2187 59.6986L59.6627 59.6986L59.6627 56.2546Z" fill="#010006"/>
<path id="Vector_211" d="M63.103 56.2546L59.659 56.2546L59.659 59.6986L63.103 59.6986L63.103 56.2546Z" fill="#010006"/>
<path id="Vector_212" d="M66.5492 56.2546L63.1052 56.2546L63.1052 59.6986L66.5492 59.6986V56.2546Z" fill="#010006"/>
<path id="Vector_213" d="M69.9953 56.2546L66.5513 56.2546V59.6986L69.9953 59.6986V56.2546Z" fill="#010006"/>
<path id="Vector_214" d="M73.4357 56.2546L69.9917 56.2546V59.6986L73.4357 59.6986V56.2546Z" fill="#010006"/>
<path id="Vector_215" d="M83.7684 56.2546L80.3244 56.2546V59.6986L83.7684 59.6986V56.2546Z" fill="#010006"/>
<path id="Vector_216" d="M32.1108 59.6975L28.6668 59.6975L28.6668 63.1415L32.1108 63.1415L32.1108 59.6975Z" fill="#010006"/>
<path id="Vector_217" d="M49.33 59.6975L45.886 59.6975L45.886 63.1415L49.33 63.1415L49.33 59.6975Z" fill="#010006"/>
<path id="Vector_218" d="M52.7704 59.6975L49.3264 59.6975L49.3264 63.1415L52.7704 63.1415L52.7704 59.6975Z" fill="#010006"/>
<path id="Vector_219" d="M56.2165 59.6975L52.7725 59.6975L52.7725 63.1415L56.2165 63.1415L56.2165 59.6975Z" fill="#010006"/>
<path id="Vector_220" d="M59.6627 59.6975L56.2187 59.6975L56.2187 63.1415L59.6627 63.1415L59.6627 59.6975Z" fill="#010006"/>
<path id="Vector_221" d="M73.4357 59.6975L69.9917 59.6975V63.1415L73.4357 63.1415V59.6975Z" fill="#010006"/>
<path id="Vector_222" d="M87.2145 59.6975L83.7705 59.6975V63.1415L87.2145 63.1415V59.6975Z" fill="#010006"/>
<path id="Vector_223" d="M4.55899 63.1422L1.11499 63.1422L1.11499 66.5862H4.55899L4.55899 63.1422Z" fill="#010006"/>
<path id="Vector_224" d="M7.99936 63.1422L4.55537 63.1422L4.55537 66.5862H7.99936L7.99936 63.1422Z" fill="#010006"/>
<path id="Vector_225" d="M11.4455 63.1422L8.00151 63.1422L8.00151 66.5862H11.4455L11.4455 63.1422Z" fill="#010006"/>
<path id="Vector_226" d="M14.8859 63.1422L11.4419 63.1422L11.4419 66.5862H14.8859L14.8859 63.1422Z" fill="#010006"/>
<path id="Vector_227" d="M18.332 63.1422L14.888 63.1422L14.888 66.5862H18.332L18.332 63.1422Z" fill="#010006"/>
<path id="Vector_228" d="M21.7782 63.1422L18.3342 63.1422L18.3342 66.5862H21.7782L21.7782 63.1422Z" fill="#010006"/>
<path id="Vector_229" d="M25.2185 63.1422L21.7745 63.1422L21.7745 66.5862H25.2185L25.2185 63.1422Z" fill="#010006"/>
<path id="Vector_230" d="M32.1108 63.1422L28.6668 63.1422L28.6668 66.5862H32.1108L32.1108 63.1422Z" fill="#010006"/>
<path id="Vector_231" d="M35.5512 63.1422L32.1072 63.1422L32.1072 66.5862H35.5512L35.5512 63.1422Z" fill="#010006"/>
<path id="Vector_232" d="M42.4435 63.1422L38.9995 63.1422L38.9995 66.5862H42.4435L42.4435 63.1422Z" fill="#010006"/>
<path id="Vector_233" d="M59.6627 63.1422L56.2187 63.1422L56.2187 66.5862H59.6627L59.6627 63.1422Z" fill="#010006"/>
<path id="Vector_234" d="M66.5492 63.1422L63.1052 63.1422L63.1052 66.5862H66.5492V63.1422Z" fill="#010006"/>
<path id="Vector_235" d="M73.4357 63.1422L69.9917 63.1422V66.5862H73.4357V63.1422Z" fill="#010006"/>
<path id="Vector_236" d="M87.2145 63.1422L83.7705 63.1422V66.5862H87.2145V63.1422Z" fill="#010006"/>
<path id="Vector_237" d="M4.55899 66.5851H1.11499L1.11499 70.0291H4.55899L4.55899 66.5851Z" fill="#010006"/>
<path id="Vector_238" d="M25.2185 66.5851H21.7745L21.7745 70.0291H25.2185L25.2185 66.5851Z" fill="#010006"/>
<path id="Vector_239" d="M35.5512 66.5851H32.1072L32.1072 70.0291H35.5512L35.5512 66.5851Z" fill="#010006"/>
<path id="Vector_240" d="M38.9973 66.5851H35.5534L35.5534 70.0291H38.9973L38.9973 66.5851Z" fill="#010006"/>
<path id="Vector_241" d="M49.33 66.5851H45.886L45.886 70.0291H49.33L49.33 66.5851Z" fill="#010006"/>
<path id="Vector_242" d="M56.2165 66.5851H52.7725L52.7725 70.0291H56.2165L56.2165 66.5851Z" fill="#010006"/>
<path id="Vector_243" d="M59.6627 66.5851H56.2187L56.2187 70.0291H59.6627L59.6627 66.5851Z" fill="#010006"/>
<path id="Vector_244" d="M73.4357 66.5851H69.9917V70.0291H73.4357V66.5851Z" fill="#010006"/>
<path id="Vector_245" d="M83.7684 66.5851H80.3244V70.0291H83.7684V66.5851Z" fill="#010006"/>
<path id="Vector_246" d="M87.2145 66.5851H83.7705V70.0291H87.2145V66.5851Z" fill="#010006"/>
<path id="Vector_247" d="M4.55899 70.0287H1.11499L1.11499 73.4727H4.55899L4.55899 70.0287Z" fill="#010006"/>
<path id="Vector_248" d="M11.4455 70.0287H8.00151L8.00151 73.4727H11.4455L11.4455 70.0287Z" fill="#010006"/>
<path id="Vector_249" d="M14.8859 70.0287H11.4419L11.4419 73.4727H14.8859L14.8859 70.0287Z" fill="#010006"/>
<path id="Vector_250" d="M18.332 70.0287H14.888L14.888 73.4727H18.332L18.332 70.0287Z" fill="#010006"/>
<path id="Vector_251" d="M25.2185 70.0287H21.7745L21.7745 73.4727H25.2185L25.2185 70.0287Z" fill="#010006"/>
<path id="Vector_252" d="M38.9973 70.0287H35.5534L35.5534 73.4727H38.9973L38.9973 70.0287Z" fill="#010006"/>
<path id="Vector_253" d="M42.4435 70.0287H38.9995L38.9995 73.4727H42.4435L42.4435 70.0287Z" fill="#010006"/>
<path id="Vector_254" d="M45.8839 70.0287H42.4399L42.4399 73.4727H45.8839L45.8839 70.0287Z" fill="#010006"/>
<path id="Vector_255" d="M49.33 70.0287H45.886L45.886 73.4727H49.33L49.33 70.0287Z" fill="#010006"/>
<path id="Vector_256" d="M56.2165 70.0287H52.7725L52.7725 73.4727H56.2165L56.2165 70.0287Z" fill="#010006"/>
<path id="Vector_257" d="M59.6627 70.0287H56.2187L56.2187 73.4727H59.6627L59.6627 70.0287Z" fill="#010006"/>
<path id="Vector_258" d="M63.103 70.0287H59.659L59.659 73.4727H63.103L63.103 70.0287Z" fill="#010006"/>
<path id="Vector_259" d="M66.5492 70.0287H63.1052L63.1052 73.4727H66.5492V70.0287Z" fill="#010006"/>
<path id="Vector_260" d="M69.9953 70.0287H66.5513V73.4727H69.9953V70.0287Z" fill="#010006"/>
<path id="Vector_261" d="M73.4357 70.0287H69.9917V73.4727H73.4357V70.0287Z" fill="#010006"/>
<path id="Vector_262" d="M83.7684 70.0287H80.3244V73.4727H83.7684V70.0287Z" fill="#010006"/>
<path id="Vector_263" d="M87.2145 70.0287H83.7705V73.4727H87.2145V70.0287Z" fill="#010006"/>
<path id="Vector_264" d="M4.55899 73.4716H1.11499L1.11499 76.9156H4.55899L4.55899 73.4716Z" fill="#010006"/>
<path id="Vector_265" d="M11.4455 73.4716H8.00151L8.00151 76.9156H11.4455L11.4455 73.4716Z" fill="#010006"/>
<path id="Vector_266" d="M14.8859 73.4716H11.4419L11.4419 76.9156H14.8859L14.8859 73.4716Z" fill="#010006"/>
<path id="Vector_267" d="M18.332 73.4716H14.888L14.888 76.9156H18.332L18.332 73.4716Z" fill="#010006"/>
<path id="Vector_268" d="M25.2185 73.4716H21.7745L21.7745 76.9156H25.2185L25.2185 73.4716Z" fill="#010006"/>
<path id="Vector_269" d="M38.9973 73.4716H35.5534L35.5534 76.9156H38.9973L38.9973 73.4716Z" fill="#010006"/>
<path id="Vector_270" d="M45.8839 73.4716H42.4399L42.4399 76.9156H45.8839L45.8839 73.4716Z" fill="#010006"/>
<path id="Vector_271" d="M59.6627 73.4716H56.2187L56.2187 76.9156H59.6627L59.6627 73.4716Z" fill="#010006"/>
<path id="Vector_272" d="M63.103 73.4716H59.659L59.659 76.9156H63.103L63.103 73.4716Z" fill="#010006"/>
<path id="Vector_273" d="M73.4357 73.4716H69.9917V76.9156H73.4357V73.4716Z" fill="#010006"/>
<path id="Vector_274" d="M80.3222 73.4716H76.8782V76.9156H80.3222V73.4716Z" fill="#010006"/>
<path id="Vector_275" d="M83.7684 73.4716H80.3244V76.9156H83.7684V73.4716Z" fill="#010006"/>
<path id="Vector_276" d="M4.55899 76.9181H1.11499L1.11499 80.3621H4.55899L4.55899 76.9181Z" fill="#010006"/>
<path id="Vector_277" d="M11.4455 76.9181H8.00151L8.00151 80.3621H11.4455L11.4455 76.9181Z" fill="#010006"/>
<path id="Vector_278" d="M14.8859 76.9181H11.4419L11.4419 80.3621H14.8859L14.8859 76.9181Z" fill="#010006"/>
<path id="Vector_279" d="M18.332 76.9181H14.888L14.888 80.3621H18.332L18.332 76.9181Z" fill="#010006"/>
<path id="Vector_280" d="M25.2185 76.9181H21.7745L21.7745 80.3621H25.2185L25.2185 76.9181Z" fill="#010006"/>
<path id="Vector_281" d="M32.1108 76.9181H28.6668L28.6668 80.3621H32.1108L32.1108 76.9181Z" fill="#010006"/>
<path id="Vector_282" d="M38.9973 76.9181H35.5534L35.5534 80.3621H38.9973L38.9973 76.9181Z" fill="#010006"/>
<path id="Vector_283" d="M45.8839 76.9181H42.4399L42.4399 80.3621H45.8839L45.8839 76.9181Z" fill="#010006"/>
<path id="Vector_284" d="M49.33 76.9181H45.886L45.886 80.3621H49.33L49.33 76.9181Z" fill="#010006"/>
<path id="Vector_285" d="M52.7704 76.9181H49.3264L49.3264 80.3621H52.7704L52.7704 76.9181Z" fill="#010006"/>
<path id="Vector_286" d="M63.103 76.9181H59.659L59.659 80.3621H63.103L63.103 76.9181Z" fill="#010006"/>
<path id="Vector_287" d="M69.9953 76.9181H66.5513V80.3621H69.9953V76.9181Z" fill="#010006"/>
<path id="Vector_288" d="M73.4357 76.9181H69.9917V80.3621H73.4357V76.9181Z" fill="#010006"/>
<path id="Vector_289" d="M76.8819 76.9181H73.4379V80.3621H76.8819V76.9181Z" fill="#010006"/>
<path id="Vector_290" d="M83.7684 76.9181H80.3244V80.3621H83.7684V76.9181Z" fill="#010006"/>
<path id="Vector_291" d="M87.2145 76.9181H83.7705V80.3621H87.2145V76.9181Z" fill="#010006"/>
<path id="Vector_292" d="M4.55899 80.361H1.11499L1.11499 83.805H4.55899L4.55899 80.361Z" fill="#010006"/>
<path id="Vector_293" d="M25.2185 80.361H21.7745L21.7745 83.805H25.2185L25.2185 80.361Z" fill="#010006"/>
<path id="Vector_294" d="M35.5512 80.361H32.1072L32.1072 83.805H35.5512L35.5512 80.361Z" fill="#010006"/>
<path id="Vector_295" d="M38.9973 80.361H35.5534L35.5534 83.805H38.9973L38.9973 80.361Z" fill="#010006"/>
<path id="Vector_296" d="M42.4435 80.361H38.9995L38.9995 83.805H42.4435L42.4435 80.361Z" fill="#010006"/>
<path id="Vector_297" d="M45.8839 80.361H42.4399L42.4399 83.805H45.8839L45.8839 80.361Z" fill="#010006"/>
<path id="Vector_298" d="M52.7704 80.361H49.3264L49.3264 83.805H52.7704L52.7704 80.361Z" fill="#010006"/>
<path id="Vector_299" d="M59.6627 80.361H56.2187L56.2187 83.805H59.6627L59.6627 80.361Z" fill="#010006"/>
<path id="Vector_300" d="M69.9953 80.361H66.5513V83.805H69.9953V80.361Z" fill="#010006"/>
<path id="Vector_301" d="M73.4357 80.361H69.9917V83.805H73.4357V80.361Z" fill="#010006"/>
<path id="Vector_302" d="M4.55899 83.805H1.11499L1.11499 87.249H4.55899L4.55899 83.805Z" fill="#010006"/>
<path id="Vector_303" d="M7.99936 83.805H4.55537L4.55537 87.249H7.99936L7.99936 83.805Z" fill="#010006"/>
<path id="Vector_304" d="M11.4455 83.805H8.00151L8.00151 87.249H11.4455L11.4455 83.805Z" fill="#010006"/>
<path id="Vector_305" d="M14.8859 83.805H11.4419L11.4419 87.249H14.8859L14.8859 83.805Z" fill="#010006"/>
<path id="Vector_306" d="M18.332 83.805H14.888L14.888 87.249H18.332L18.332 83.805Z" fill="#010006"/>
<path id="Vector_307" d="M21.7782 83.805H18.3342L18.3342 87.249H21.7782L21.7782 83.805Z" fill="#010006"/>
<path id="Vector_308" d="M25.2185 83.805H21.7745L21.7745 87.249H25.2185L25.2185 83.805Z" fill="#010006"/>
<path id="Vector_309" d="M32.1108 83.805H28.6668L28.6668 87.249H32.1108L32.1108 83.805Z" fill="#010006"/>
<path id="Vector_310" d="M38.9973 83.805H35.5534L35.5534 87.249H38.9973L38.9973 83.805Z" fill="#010006"/>
<path id="Vector_311" d="M49.33 83.805H45.886L45.886 87.249H49.33L49.33 83.805Z" fill="#010006"/>
<path id="Vector_312" d="M52.7704 83.805H49.3264L49.3264 87.249H52.7704L52.7704 83.805Z" fill="#010006"/>
<path id="Vector_313" d="M59.6627 83.805H56.2187L56.2187 87.249H59.6627L59.6627 83.805Z" fill="#010006"/>
<path id="Vector_314" d="M66.5492 83.805H63.1052L63.1052 87.249H66.5492V83.805Z" fill="#010006"/>
<path id="Vector_315" d="M76.8819 83.805H73.4379V87.249H76.8819V83.805Z" fill="#010006"/>
<path id="Vector_316" d="M87.2145 83.805H83.7705V87.249H87.2145V83.805Z" fill="#010006"/>
</g>
<g id="Subtract">
</g>
</g>
</svg>
